<svg width="37" height="40" viewBox="0 0 37 40" fill="none" xmlns="http://www.w3.org/2000/svg">
<path d="M36.0088 14.8479L34.2596 12.4647C33.8665 11.9311 33.3001 11.5507 32.6574 11.3887C32.0146 11.2267 31.3356 11.2932 30.7365 11.5769L24.3312 1.91828C24.2685 1.8024 24.1997 1.68991 24.1251 1.58129L24.1154 1.56702C23.8399 1.17175 23.4891 0.834771 23.0831 0.575419C22.6771 0.316068 22.2238 0.139451 21.7494 0.0557044C21.2749 -0.0280418 20.7886 -0.0172683 20.3184 0.0874065C19.8481 0.192081 19.4031 0.388597 19.009 0.665674L2.29154 12.411C1.91883 12.6131 1.57727 12.868 1.27743 13.1678C0.865428 13.5798 0.540151 14.0701 0.320814 14.6099C0.101477 15.1497 -0.00747294 15.728 0.000397979 16.3106C0.0082689 16.8932 0.132801 17.4683 0.366641 18.0019C0.60048 18.5356 0.938885 19.017 1.36187 19.4177L12.9738 30.4187V32.432H11.8927C11.0328 32.433 10.2084 32.775 9.60031 33.383C8.99225 33.9911 8.65023 34.8155 8.64929 35.6754V36.7566C8.65023 37.6165 8.99225 38.4409 9.60031 39.049C10.2084 39.657 11.0328 39.9991 11.8927 40H24.8664C25.7263 39.9991 26.5507 39.657 27.1588 39.049C27.7668 38.4409 28.1088 37.6165 28.1098 36.7566V35.6754C28.1088 34.8155 27.7668 33.9911 27.1588 33.383C26.5507 32.775 25.7263 32.433 24.8664 32.432H23.7852V29.1886C23.7846 28.3641 23.5951 27.5507 23.231 26.8109C22.867 26.0711 22.3383 25.4245 21.6854 24.921L21.6889 24.9169L7.13818 12.8889C6.8537 12.6552 6.54101 12.4581 6.20743 12.3022L20.252 2.43463C20.5763 2.20676 20.9776 2.11673 21.3682 2.18426C21.7587 2.2518 22.1065 2.47139 22.3354 2.79492L22.3422 2.80498C22.5658 3.12294 22.6564 3.51563 22.5947 3.8994C22.533 4.28317 22.324 4.62769 22.012 4.85957L11.2445 12.929C11.1308 13.0142 11.0351 13.1208 10.9627 13.243C10.8903 13.3651 10.8427 13.5003 10.8225 13.6408C10.8024 13.7814 10.8101 13.9245 10.8453 14.0621C10.8804 14.1996 10.9423 14.3289 11.0275 14.4425C11.1994 14.672 11.4554 14.8238 11.7393 14.8645C11.8798 14.8846 12.0229 14.8769 12.1605 14.8417C12.2981 14.8066 12.4273 14.7446 12.541 14.6595L19.8243 9.20111L25.0984 15.7132C24.6472 16.1994 24.3796 16.8278 24.3416 17.49C24.3037 18.1523 24.4977 18.8071 24.8904 19.3417L26.6394 21.7249C26.8091 21.9561 27.0637 22.1103 27.3471 22.1538C27.6306 22.1973 27.9197 22.1263 28.1508 21.9567C28.382 21.787 28.5363 21.5324 28.5797 21.249C28.6232 20.9655 28.5523 20.6764 28.3826 20.4453L26.6335 18.0621C26.5249 17.914 26.4795 17.7289 26.5074 17.5473C26.5352 17.3658 26.6341 17.2028 26.7821 17.0942L31.5485 13.5958C31.6967 13.4873 31.8818 13.4421 32.0632 13.4699C32.2447 13.4978 32.4077 13.5965 32.5165 13.7444L34.2656 16.1276C34.3497 16.242 34.4554 16.3388 34.5768 16.4124C34.6983 16.486 34.833 16.535 34.9733 16.5565C35.1137 16.578 35.2569 16.5717 35.3948 16.5378C35.5327 16.504 35.6626 16.4433 35.777 16.3593C35.8915 16.2753 35.9883 16.1696 36.0618 16.0481C36.1354 15.9267 36.1844 15.792 36.2059 15.6516C36.2274 15.5113 36.2211 15.3681 36.1873 15.2302C36.1534 15.0923 36.0928 14.9624 36.0088 14.8479ZM25.9475 35.6754V36.7566C25.9472 37.0432 25.8332 37.3181 25.6305 37.5207C25.4278 37.7234 25.153 37.8374 24.8664 37.8377H11.8927C11.6061 37.8374 11.3312 37.7234 11.1285 37.5207C10.9259 37.3181 10.8119 37.0432 10.8116 36.7566V35.6754C10.8119 35.3888 10.9259 35.114 11.1285 34.9113C11.3312 34.7086 11.6061 34.5946 11.8927 34.5943H24.8664C25.153 34.5946 25.4278 34.7086 25.6305 34.9113C25.8332 35.114 25.9472 35.3888 25.9475 35.6754ZM15.1361 32.432V29.1886C15.1361 28.3284 15.4778 27.5034 16.0861 26.8952C16.6944 26.2869 17.5193 25.9452 18.3795 25.9452C19.2397 25.9452 20.0647 26.2869 20.673 26.8952C21.2812 27.5034 21.623 28.3284 21.623 29.1886V32.432H15.1361ZM17.112 23.9392C16.1922 24.1627 15.347 24.6232 14.6605 25.2749C13.9739 25.9266 13.4701 26.7468 13.199 27.6537L2.84898 17.8483C2.43495 17.4562 2.18943 16.9186 2.16422 16.3489C2.13901 15.7792 2.33608 15.222 2.71384 14.7949C3.09161 14.3677 3.62054 14.104 4.18902 14.0594C4.75751 14.0148 5.32109 14.1928 5.76086 14.5558L17.112 23.9392ZM23.3086 6.58999C23.6601 6.32606 23.9615 6.0012 24.1983 5.63086L28.9611 12.8125L26.8103 14.391L21.5559 7.90331L23.3086 6.58999Z" fill="black"/>
<path d="M18.3796 30.2697C18.9767 30.2697 19.4607 29.7857 19.4607 29.1886C19.4607 28.5915 18.9767 28.1074 18.3796 28.1074C17.7825 28.1074 17.2985 28.5915 17.2985 29.1886C17.2985 29.7857 17.7825 30.2697 18.3796 30.2697Z" fill="black"/>
</svg>
