<svg width="40" height="40" viewBox="0 0 40 40" fill="none" xmlns="http://www.w3.org/2000/svg">
<path d="M19.5914 8.18579C13.0767 8.18579 7.78027 13.4809 7.78027 19.9956C7.78027 26.5027 13.0767 31.8062 19.5914 31.8062C26.1074 31.8062 31.4025 26.5022 31.4025 19.9956C31.4025 13.4809 26.1074 8.18579 19.5914 8.18579ZM19.5914 29.8013C14.1901 29.8013 9.78561 25.4071 9.78561 19.9956C9.78561 14.5942 14.1812 10.1907 19.5914 10.1907C25.0016 10.1907 29.3972 14.5938 29.3972 19.9956C29.3972 25.3982 24.9941 29.8013 19.5914 29.8013Z" fill="black"/>
<path d="M38.5474 21.6169L37.8354 20.6347C37.5003 20.176 37.4918 19.5467 37.8278 19.08L38.5229 18.0893C39.0709 17.3116 39.2674 16.3293 39.0474 15.396C38.8261 14.4627 38.2207 13.6698 37.3772 13.2196L36.3127 12.6467C35.8047 12.3764 35.5358 11.82 35.6256 11.2547L35.8296 10.06C35.9852 9.11822 35.7318 8.15244 35.1345 7.408C34.5292 6.66267 33.6358 6.21333 32.6874 6.172L31.4754 6.12311C30.9025 6.09822 30.4105 5.71289 30.2558 5.16489L29.9043 4.01022C29.495 2.59422 28.1767 1.60444 26.6954 1.60444C26.2452 1.60444 25.795 1.69467 25.3772 1.87467L24.2638 2.34889C23.7483 2.57022 23.1181 2.43156 22.7501 2.01378L21.9398 1.11333C21.3101 0.408889 20.4021 0 19.4612 0C18.4945 0 17.5785 0.417778 16.9394 1.14578L16.1536 2.06267C15.7856 2.488 15.163 2.63556 14.6398 2.42311L13.5181 1.96533C13.1092 1.80133 12.6838 1.71156 12.2496 1.71156C10.7523 1.71156 9.42607 2.71867 9.03229 4.16711L8.71318 5.33689C8.56562 5.88578 8.07495 6.27867 7.50206 6.31111L6.29851 6.38489C5.34918 6.43378 4.45718 6.90044 3.86784 7.65333C3.27762 8.40622 3.04118 9.38089 3.21229 10.3138L3.43362 11.5009C3.53984 12.0653 3.26962 12.6307 2.77051 12.9084L1.71496 13.4978C0.8794 13.9644 0.282511 14.7662 0.0776221 15.6996C-0.127267 16.6329 0.0776222 17.6147 0.642955 18.384L1.35496 19.3582C1.69007 19.8173 1.69896 20.4467 1.36251 20.9129L0.666955 21.9036C0.118955 22.6818 -0.0774889 23.6636 0.142956 24.5969C0.364289 25.5302 0.969622 26.3236 1.81273 26.7733L2.87718 27.3462C3.38518 27.6164 3.65407 28.1729 3.56384 28.7382L3.35984 29.9329C3.20473 30.8733 3.45762 31.8404 4.0554 32.5849C4.66073 33.3302 5.55407 33.7796 6.50207 33.8204L7.71407 33.8693C8.28695 33.8942 8.77851 34.2787 8.93362 34.8271L9.26873 35.9893C9.67762 37.4053 10.9963 38.396 12.4772 38.396C12.9274 38.396 13.3776 38.3062 13.7954 38.1258L14.9074 37.6511C15.4238 37.4307 16.0545 37.5693 16.4221 37.9871L17.2327 38.8867C17.8652 39.5911 18.7732 40 19.7141 40C20.6807 40 21.5967 39.5831 22.2358 38.8542L23.0287 37.9373C23.3976 37.512 24.0194 37.3644 24.5434 37.5769L25.6643 38.0356C26.0732 38.1991 26.4998 38.2893 26.9336 38.2893C28.431 38.2893 29.7572 37.2822 30.1496 35.8338L30.4687 34.6631C30.6163 34.1151 31.1078 33.7227 31.6807 33.6889L32.8918 33.616C33.8501 33.5587 34.7336 33.0996 35.3225 32.3471C35.9127 31.5938 36.1492 30.6284 35.9781 29.6876L35.7567 28.5004C35.6505 27.9351 35.9207 27.3707 36.4198 27.0929L37.4754 26.5027C38.311 26.0364 38.9078 25.2342 39.1132 24.3013C39.3181 23.368 39.1132 22.3862 38.5474 21.6169ZM37.1563 23.8671C37.075 24.244 36.8372 24.5551 36.5021 24.744L35.4465 25.3333C34.1936 26.0284 33.5229 27.4444 33.7843 28.852L34.0056 30.0391C34.0794 30.4244 33.9807 30.8009 33.7443 31.1036C33.5065 31.4067 33.1625 31.5867 32.7701 31.6107L31.5665 31.6844C30.1341 31.7671 28.9145 32.7489 28.5385 34.1324L28.2194 35.2947C28.0638 35.8751 27.5314 36.2764 26.9345 36.2764C26.7616 36.2764 26.5905 36.244 26.4265 36.1787L25.3047 35.72C24.8954 35.556 24.4701 35.4658 24.0363 35.4658C23.0705 35.4658 22.1541 35.8836 21.5158 36.6116L20.7216 37.5213C20.4678 37.8151 20.1074 37.9787 19.7145 37.9787C19.3305 37.9787 18.9776 37.8236 18.7247 37.5373L17.9141 36.6369C17.2838 35.9329 16.3754 35.5236 15.4261 35.5236C14.967 35.5236 14.5256 35.6133 14.1078 35.7938L12.9945 36.2676C12.823 36.3413 12.6518 36.3751 12.4714 36.3751C11.8812 36.3751 11.3581 35.9809 11.1941 35.4169L10.859 34.2547C10.4576 32.88 9.22918 31.9133 7.79673 31.8484L6.58562 31.7996C6.20029 31.7836 5.84873 31.6107 5.6114 31.308C5.36607 31.0053 5.26873 30.6293 5.33362 30.2524L5.53762 29.0578C5.7754 27.6413 5.08829 26.2418 3.81895 25.5627L2.7554 24.9898C2.4114 24.8098 2.17362 24.4982 2.08384 24.1218C1.99407 23.7453 2.0674 23.3609 2.29673 23.0498L2.99229 22.0591C3.81895 20.8898 3.8114 19.3262 2.95984 18.164L2.24784 17.1898C2.01896 16.8782 1.93629 16.4942 2.02651 16.1178C2.10918 15.7413 2.34651 15.4298 2.68207 15.2422L3.73762 14.6529C4.98962 13.9573 5.66162 12.5413 5.39896 11.1329L5.18607 9.95467C5.11229 9.56933 5.21095 9.19289 5.4474 8.89022C5.68518 8.58756 6.02918 8.40756 6.42162 8.38356L7.62518 8.30978C9.05762 8.22711 10.2683 7.24533 10.6536 5.86178L10.9727 4.692C11.1278 4.11022 11.6607 3.70889 12.2576 3.70889C12.4301 3.70889 12.6016 3.74267 12.7656 3.80756L13.8874 4.26533C14.2963 4.42933 14.7216 4.51911 15.1558 4.51911C16.1216 4.51911 17.0385 4.10133 17.6763 3.37333L18.4705 2.46533C18.7243 2.17022 19.0847 2.00622 19.4776 2.00622C19.8616 2.00622 20.2145 2.16267 20.4674 2.44889L21.2776 3.34844C21.9083 4.05244 22.8163 4.46178 23.7661 4.46178C24.2247 4.46178 24.6665 4.37156 25.0843 4.19156L26.1976 3.71733C26.3692 3.64356 26.5403 3.61111 26.7207 3.61111C27.311 3.61111 27.8341 4.004 27.9981 4.568L28.3332 5.73111C28.7345 7.10578 29.963 8.07156 31.3954 8.13689L32.6065 8.18667C32.9918 8.20311 33.3434 8.37422 33.5887 8.67733C33.835 8.98 33.9323 9.35644 33.8674 9.73289L33.6625 10.9284C33.4247 12.3444 34.1127 13.7431 35.3812 14.4236L36.4456 14.9964C36.7896 15.1756 37.0265 15.4871 37.1163 15.8636C37.2065 16.24 37.1336 16.6253 36.9123 16.9356L36.2172 17.9262C35.3905 19.0969 35.3976 20.6596 36.2496 21.8231L36.9616 22.796C37.1563 23.1067 37.239 23.4907 37.1563 23.8671Z" fill="black"/>
<path d="M22.4973 16.747L18.1101 21.1088L16.6853 19.6764C16.2924 19.2835 15.6621 19.2835 15.2693 19.6764C14.8764 20.0693 14.8764 20.6995 15.2617 21.0928L17.3981 23.2377C17.5857 23.4253 17.8399 23.5319 18.1101 23.5319C18.3715 23.5319 18.6257 23.4253 18.8141 23.2377L23.9133 18.1706C24.3061 17.7777 24.3061 17.1475 23.9221 16.7546C23.5293 16.3617 22.8901 16.3617 22.4973 16.747Z" fill="black"/>
</svg>
