<svg width="40" height="40" viewBox="0 0 40 40" fill="none" xmlns="http://www.w3.org/2000/svg">
<path d="M20 0C8.9785 0 0 8.9785 0 20C0 31.0215 8.9785 40 20 40C31.0215 40 40 31.0215 40 20C40 8.9785 31.0215 0 20 0ZM20 37.8495C10.1613 37.8495 2.15054 29.8387 2.15054 20C2.15054 10.1613 10.1613 2.15054 20 2.15054C29.8387 2.15054 37.8495 10.1613 37.8495 20C37.8495 29.8387 29.8387 37.8495 20 37.8495Z" fill="white"/>
<path d="M32.3117 19.4086C32.3117 19.3548 32.3117 19.3548 32.2579 19.301C32.2579 19.2473 32.2579 19.2473 32.2042 19.1935C32.2042 19.1397 32.1504 19.1397 32.1504 19.086C32.1504 19.0322 32.0966 19.0322 32.0966 18.9785C32.0966 18.9247 32.0429 18.9247 31.9891 18.8709C31.9891 18.8709 31.9891 18.8172 31.9354 18.8172L20.7526 7.41931L20.6988 7.36555C20.645 7.31179 20.645 7.31179 20.5913 7.25802C20.5375 7.25802 20.5375 7.20426 20.4837 7.20426C20.43 7.20426 20.43 7.1505 20.3762 7.1505C20.3225 7.1505 20.3225 7.1505 20.2687 7.09673C20.2149 7.09673 20.2149 7.09673 20.1612 7.04297C20.1074 7.04297 20.1074 7.04297 20.0536 7.04297C19.9999 7.04297 19.9999 7.04297 19.9461 7.04297C19.8923 7.04297 19.8923 7.04297 19.8386 7.04297C19.7848 7.04297 19.7848 7.04297 19.7311 7.04297C19.6773 7.04297 19.6773 7.04297 19.6235 7.09673C19.5698 7.09673 19.5698 7.09673 19.516 7.1505C19.4622 7.1505 19.4622 7.20426 19.4085 7.20426C19.3547 7.20426 19.3547 7.25802 19.3009 7.25802C19.2472 7.25802 19.2472 7.31179 19.1934 7.36555L19.1397 7.41931L8.01062 18.8709C8.01062 18.8709 8.01062 18.9247 7.95686 18.9247C7.90309 18.9785 7.90309 18.9785 7.84933 19.0322C7.84933 19.086 7.79557 19.086 7.79557 19.1397C7.79557 19.1935 7.7418 19.1935 7.7418 19.2473C7.7418 19.301 7.7418 19.301 7.68804 19.3548C7.68804 19.4086 7.68804 19.4086 7.63428 19.4623C7.63428 19.5161 7.63428 19.5699 7.63428 19.6236V19.6774C7.63428 19.7311 7.63428 19.8387 7.63428 19.8924C7.63428 19.9462 7.63428 19.9462 7.68804 20C7.68804 20.0537 7.68804 20.0537 7.7418 20.1075C7.7418 20.1612 7.79557 20.215 7.79557 20.2688C7.79557 20.2688 7.79557 20.2688 7.79557 20.3225C7.84933 20.3763 7.90309 20.4301 7.95686 20.4838C7.95686 20.4838 8.01062 20.4838 8.01062 20.5376C8.06439 20.5914 8.06438 20.5914 8.11815 20.6451C8.17191 20.6451 8.17191 20.6989 8.22568 20.6989C8.27944 20.6989 8.27944 20.7526 8.3332 20.7526C8.38697 20.7526 8.38697 20.7526 8.44073 20.8064C8.49449 20.8064 8.49449 20.8064 8.54826 20.8064C8.60202 20.8064 8.70955 20.8064 8.76331 20.8064H11.5052V29.4623C11.5052 30.0537 11.9891 30.5376 12.5805 30.5376H17.9031C18.4945 30.5376 18.9784 30.0537 18.9784 29.4623V24.1935H19.9999H21.0214V29.4623C21.0214 30.0537 21.5052 30.5376 22.0966 30.5376H27.4192C28.0106 30.5376 28.4945 30.0537 28.4945 29.4623V20.6989H31.2364C31.2902 20.6989 31.3977 20.6989 31.4515 20.6989H31.5052C31.559 20.6989 31.6128 20.6989 31.6128 20.6451C31.6665 20.6451 31.6665 20.5914 31.7203 20.5914C31.7741 20.5914 31.7741 20.5376 31.8278 20.5376C31.8816 20.4838 31.8816 20.4838 31.9354 20.4301C31.9354 20.4301 31.9891 20.4301 31.9891 20.3763C32.0429 20.3225 32.0966 20.2688 32.1504 20.215C32.1504 20.215 32.1504 20.215 32.1504 20.1612C32.2042 20.1075 32.2042 20.0537 32.2042 20C32.2042 19.9462 32.2042 19.9462 32.2579 19.8924C32.2579 19.8387 32.2579 19.8387 32.3117 19.7849C32.3117 19.7311 32.3117 19.6236 32.3117 19.5699V19.5161C32.3117 19.4623 32.3117 19.4623 32.3117 19.4086ZM27.4192 18.5483C26.8278 18.5483 26.344 19.0322 26.344 19.6236V28.2795H23.1719V23.0107C23.1719 22.4193 22.688 21.9354 22.0966 21.9354H19.9999H17.9031C17.3117 21.9354 16.8278 22.4193 16.8278 23.0107V28.2795H13.6558V19.6236C13.6558 19.0322 13.1719 18.5483 12.5805 18.5483H11.2902L19.9999 9.67738L28.6558 18.4946H27.4192V18.5483Z" fill="white"/>
</svg>
