<svg width="182" height="70" viewBox="0 0 182 70" fill="none" xmlns="http://www.w3.org/2000/svg">
<path d="M0 56.1976V34.1277H15.0221V38.2637H5.36031V43.5248H13.6986V47.727H5.36031V56.1976H0Z" fill="#FFF4DE"/>
<path d="M84.0338 56.1976V34.1277H89.3941V43.0615H97.5008V34.1277H102.828V56.1976H97.5008V47.4292H89.3941V56.1976H84.0338Z" fill="#FFF4DE"/>
<path d="M113.471 56.6939C110.648 56.6939 108.519 55.9439 107.085 54.4439C105.674 52.9218 104.968 50.6938 104.968 47.76C104.968 44.6056 105.685 42.3445 107.118 40.9769C108.574 39.5872 110.692 38.8923 113.471 38.8923C115.346 38.8923 116.913 39.2122 118.17 39.8519C119.449 40.4695 120.409 41.4291 121.049 42.7306C121.71 44.0321 122.041 45.7085 122.041 47.76C122.041 50.6938 121.302 52.9218 119.824 54.4439C118.346 55.9439 116.229 56.6939 113.471 56.6939ZM113.471 52.7563C114.288 52.7563 114.96 52.5688 115.49 52.1938C116.041 51.7968 116.449 51.2343 116.714 50.5063C117.001 49.7563 117.144 48.8409 117.144 47.76C117.144 46.5247 117.001 45.5541 116.714 44.8482C116.449 44.1203 116.041 43.6019 115.49 43.2931C114.938 42.9622 114.265 42.7968 113.471 42.7968C112.633 42.7968 111.949 42.9622 111.42 43.2931C110.89 43.624 110.493 44.1534 110.229 44.8813C109.986 45.5872 109.865 46.5468 109.865 47.76C109.865 49.4365 110.151 50.6938 110.725 51.5321C111.321 52.3483 112.236 52.7563 113.471 52.7563Z" fill="#FFF4DE"/>
<path d="M131.659 56.6939C130.115 56.6939 128.748 56.4512 127.556 55.9659C126.365 55.4806 125.439 54.7416 124.777 53.749C124.115 52.7343 123.784 51.4218 123.784 49.8115V39.4548H128.715V49.4144C128.715 50.4732 128.946 51.2674 129.409 51.7968C129.895 52.3041 130.656 52.5578 131.693 52.5578C132.751 52.5578 133.512 52.3041 133.976 51.7968C134.439 51.2674 134.67 50.4732 134.67 49.4144V39.4548H139.303V49.8115C139.303 52.1938 138.619 53.9365 137.251 55.0394C135.884 56.1424 134.02 56.6939 131.659 56.6939Z" fill="#FFF4DE"/>
<path d="M146.867 56.6941C145.676 56.6941 144.651 56.5617 143.79 56.297C142.952 56.0544 142.158 55.7786 141.408 55.4698V51.1352C141.871 51.444 142.389 51.7639 142.963 52.0948C143.537 52.4036 144.165 52.6573 144.849 52.8558C145.555 53.0543 146.294 53.1536 147.066 53.1536C147.86 53.1536 148.412 53.0213 148.72 52.7566C149.051 52.4698 149.217 52.1279 149.217 51.7308C149.217 51.3558 149.051 51.058 148.72 50.8374C148.389 50.5948 147.959 50.3963 147.43 50.2418C146.901 50.0874 146.338 49.944 145.742 49.8117C145.213 49.7014 144.684 49.536 144.154 49.3154C143.625 49.0727 143.151 48.7529 142.731 48.3558C142.312 47.9587 141.97 47.4734 141.706 46.8999C141.463 46.3043 141.342 45.5874 141.342 44.7492C141.342 43.6683 141.551 42.7749 141.97 42.069C142.389 41.3411 142.941 40.7565 143.625 40.3153C144.309 39.8742 145.048 39.5653 145.842 39.3889C146.636 39.1903 147.408 39.1021 148.158 39.1242C149.526 39.1683 150.606 39.3227 151.401 39.5874C152.217 39.83 152.956 40.1499 153.617 40.547V44.4183C152.867 43.9992 152.117 43.6131 151.367 43.2602C150.639 42.8852 149.801 42.6977 148.853 42.6977C147.992 42.6977 147.375 42.8301 147 43.0948C146.625 43.3595 146.437 43.7124 146.437 44.1536C146.437 44.5727 146.559 44.9036 146.801 45.1462C147.066 45.3889 147.408 45.5874 147.827 45.7418C148.246 45.8742 148.709 46.0065 149.217 46.1389C149.768 46.2712 150.331 46.4367 150.904 46.6352C151.5 46.8117 152.051 47.0764 152.559 47.4293C153.088 47.7602 153.507 48.2345 153.816 48.8521C154.147 49.4477 154.312 50.2418 154.312 51.2345C154.29 52.5801 153.926 53.661 153.22 54.4771C152.515 55.2713 151.599 55.8448 150.474 56.1977C149.371 56.5286 148.169 56.6941 146.867 56.6941Z" fill="#FFF4DE"/>
<path d="M164.45 56.6939C162.774 56.6939 161.285 56.3519 159.983 55.6681C158.704 54.9622 157.7 53.9696 156.972 52.6902C156.266 51.3887 155.913 49.8446 155.913 48.0578C155.913 45.146 156.63 42.896 158.064 41.3078C159.52 39.6975 161.594 38.8923 164.285 38.8923C166.138 38.8923 167.627 39.2894 168.752 40.0835C169.899 40.8776 170.737 42.0357 171.266 43.5578C171.796 45.0799 172.05 46.9328 172.027 49.1166H159.288L158.759 45.9732H167.958L167.23 47.5284C167.208 45.7416 166.954 44.4843 166.469 43.7563C165.983 43.0284 165.189 42.6644 164.086 42.6644C163.469 42.6644 162.906 42.8188 162.399 43.1276C161.913 43.4365 161.527 43.9548 161.241 44.6828C160.976 45.3887 160.844 46.3703 160.844 47.6277C160.844 49.2159 161.219 50.4402 161.969 51.3005C162.741 52.1608 163.965 52.5909 165.641 52.5909C166.259 52.5909 166.866 52.5247 167.461 52.3924C168.079 52.238 168.652 52.0615 169.182 51.863C169.711 51.6644 170.163 51.488 170.538 51.3335V55.5689C169.744 55.8997 168.851 56.1644 167.858 56.363C166.888 56.5836 165.752 56.6939 164.45 56.6939Z" fill="#FFF4DE"/>
<path d="M23.3562 56.6941C22.3415 56.6941 21.382 56.5948 20.4775 56.3963C19.5952 56.2198 18.8121 55.922 18.1283 55.5029C17.4665 55.0617 16.9481 54.4772 16.5731 53.7492C16.1981 52.9992 16.0106 52.0727 16.0106 50.9698C16.0106 49.933 16.2202 49.0286 16.6393 48.2566C17.0805 47.4845 17.7422 46.8889 18.6246 46.4698C19.507 46.0507 20.6209 45.8411 21.9665 45.8411C22.7165 45.8411 23.4445 45.9183 24.1504 46.0727C24.8562 46.2271 25.4849 46.4367 26.0364 46.7014C26.6099 46.9661 27.0621 47.2529 27.393 47.5617L27.5915 49.9441C27.1504 49.6794 26.6209 49.4698 26.0033 49.3154C25.3856 49.161 24.7239 49.0838 24.018 49.0838C22.9371 49.0838 22.143 49.2492 21.6356 49.5801C21.1503 49.8889 20.9077 50.3852 20.9077 51.0691C20.9077 51.4882 21.029 51.8632 21.2717 52.1941C21.5143 52.525 21.8342 52.7786 22.2312 52.9551C22.6503 53.1316 23.0805 53.2198 23.5217 53.2198C24.6467 53.2198 25.4298 53.1426 25.8709 52.9882C26.3342 52.8338 26.5658 52.525 26.5658 52.0617V45.9073C26.5658 44.8926 26.2349 44.1646 25.5731 43.7235C24.9334 43.2602 24.018 43.0286 22.8268 43.0286C21.8562 43.0286 20.8746 43.2051 19.882 43.558C18.9114 43.8889 18.1172 44.297 17.4996 44.7823V40.4146C18.0731 40.0617 18.9555 39.7308 20.1467 39.422C21.3599 39.1132 22.7165 38.9587 24.2165 38.9587C24.7459 38.9587 25.3305 39.0029 25.9702 39.0911C26.6099 39.1793 27.2496 39.3448 27.8893 39.5874C28.529 39.808 29.1136 40.1389 29.643 40.5801C30.1945 41.0212 30.6357 41.5837 30.9665 42.2676C31.2974 42.9514 31.4629 43.8007 31.4629 44.8154L31.4298 52.7235C31.4298 53.672 31.1099 54.4441 30.4702 55.0397C29.8305 55.6132 28.904 56.0323 27.6908 56.297C26.4996 56.5617 25.0548 56.6941 23.3562 56.6941Z" fill="#FFF4DE"/>
<path d="M41.6499 56.6939C40.7234 56.6939 39.7969 56.6277 38.8705 56.4953C37.966 56.3851 37.1388 56.1755 36.3888 55.8667C35.6609 55.5358 35.0763 55.0946 34.6352 54.5431C34.194 53.9696 33.9734 53.2306 33.9734 52.3262V33.2673H38.8043V42.3997L37.8778 40.8446C38.2749 40.3813 38.7822 40.0174 39.3999 39.7526C40.0175 39.4659 40.6462 39.2674 41.2859 39.1571C41.9256 39.0468 42.455 38.9916 42.8742 38.9916C45.3447 38.9916 47.2198 39.7416 48.4992 41.2416C49.8006 42.7196 50.4514 44.8924 50.4514 47.76C50.4514 49.4365 50.2308 50.8483 49.7896 51.9953C49.3484 53.1424 48.7308 54.0578 47.9367 54.7417C47.1425 55.4255 46.2161 55.9218 45.1572 56.2306C44.0984 56.5395 42.9293 56.6939 41.6499 56.6939ZM41.5837 52.5909C42.5543 52.5909 43.3264 52.4034 43.8999 52.0284C44.4734 51.6314 44.8815 51.0909 45.1242 50.4071C45.3889 49.7233 45.5212 48.9402 45.5212 48.0578C45.5212 46.8005 45.3558 45.7968 45.0249 45.0468C44.694 44.2968 44.2418 43.7563 43.6683 43.4255C43.0947 43.0946 42.433 42.9291 41.683 42.9291C41.2418 42.9291 40.7565 42.9843 40.2271 43.0946C39.6977 43.2049 39.2234 43.3813 38.8043 43.624V51.0358C38.8043 51.4328 38.9256 51.7417 39.1683 51.9622C39.4109 52.1828 39.7418 52.3483 40.1609 52.4586C40.6021 52.5468 41.0764 52.5909 41.5837 52.5909Z" fill="#FFF4DE"/>
<path d="M60.9832 56.6939C59.3067 56.6939 57.8178 56.3519 56.5163 55.6681C55.2369 54.9622 54.2332 53.9696 53.5052 52.6902C52.7994 51.3887 52.4464 49.8446 52.4464 48.0578C52.4464 45.146 53.1633 42.896 54.5972 41.3078C56.053 39.6975 58.1266 38.8923 60.8178 38.8923C62.6707 38.8923 64.1597 39.2894 65.2847 40.0835C66.4317 40.8776 67.27 42.0357 67.7994 43.5578C68.3288 45.0799 68.5825 46.9328 68.5604 49.1166H55.8214L55.292 45.9732H64.4906L63.7626 47.5284C63.7406 45.7416 63.4869 44.4843 63.0016 43.7563C62.5163 43.0284 61.7222 42.6644 60.6192 42.6644C60.0016 42.6644 59.4391 42.8188 58.9317 43.1276C58.4464 43.4365 58.0604 43.9548 57.7736 44.6828C57.5089 45.3887 57.3766 46.3703 57.3766 47.6277C57.3766 49.2159 57.7516 50.4402 58.5016 51.3005C59.2736 52.1608 60.4979 52.5909 62.1744 52.5909C62.792 52.5909 63.3986 52.5247 63.9942 52.3924C64.6119 52.238 65.1854 52.0615 65.7148 51.863C66.2442 51.6644 66.6965 51.488 67.0715 51.3335V55.5689C66.2773 55.8997 65.3839 56.1644 64.3913 56.363C63.4207 56.5836 62.2847 56.6939 60.9832 56.6939Z" fill="#FFF4DE"/>
<path d="M70.7382 56.1978V41.2087C71.047 40.944 71.5985 40.6462 72.3926 40.3154C73.1867 39.9624 74.0911 39.6536 75.1058 39.3889C76.1426 39.1021 77.1794 38.9587 78.2161 38.9587C79.2529 38.9587 80.0691 39.0359 80.6647 39.1904C81.2602 39.3448 81.7125 39.5433 82.0213 39.7859V43.3926C81.6463 43.3043 81.172 43.2382 80.5985 43.194C80.025 43.1499 79.4294 43.1279 78.8117 43.1279C78.1941 43.1058 77.6095 43.1058 77.058 43.1279C76.5066 43.1499 76.0433 43.194 75.6683 43.2602V56.1978H70.7382Z" fill="#FFF4DE"/>
<path d="M75.6447 58.955H70.6552V69.4592H182V23.5032L126.328 0L70.6552 23.5032V36.3709H75.6447V26.7858L126.328 5.38342L177.011 26.7858V64.4697H75.6447V58.955Z" fill="#FFF4DE"/>
</svg>
