<svg width="40" height="39" viewBox="0 0 40 39" fill="none" xmlns="http://www.w3.org/2000/svg">
<path d="M7.01235 0H32.9877C36.8395 0 40 3.16049 40 7.01235V24.5926C40 28.4444 36.8395 31.6049 32.9877 31.6049H22.2222L9.97531 38.0247V31.6049H7.01235C3.16049 31.6049 0 28.4444 0 24.5926V7.01235C0 3.16049 3.16049 0 7.01235 0ZM32.9877 2.37037H7.01235C4.44444 2.37037 2.37037 4.44444 2.37037 7.01235V24.5926C2.37037 27.1605 4.44444 29.2346 7.01235 29.2346H12.3457V34.1728L21.6296 29.2346H32.9877C35.5556 29.2346 37.6296 27.1605 37.6296 24.5926V7.01235C37.6296 4.44444 35.5556 2.37037 32.9877 2.37037Z" fill="black"/>
<path d="M11.6543 11.5553C11.0617 11.5553 10.5679 11.0615 10.5679 10.3701C10.5679 9.77752 11.0617 9.28369 11.6543 9.28369H19.0617C19.7531 9.28369 20.2469 9.77752 20.2469 10.3701C20.2469 11.0615 19.7531 11.5553 19.0617 11.5553H11.6543Z" fill="black"/>
<path d="M11.6543 16.9876C11.0617 16.9876 10.5679 16.4937 10.5679 15.8024C10.5679 15.111 11.0617 14.6172 11.6543 14.6172H28.2469C28.9382 14.6172 29.4321 15.111 29.4321 15.8024C29.4321 16.4937 28.9382 16.9876 28.2469 16.9876H11.6543Z" fill="black"/>
<path d="M11.6543 22.4197C11.0617 22.4197 10.5679 21.8271 10.5679 21.2345C10.5679 20.5431 11.0617 20.0493 11.6543 20.0493H28.2469C28.9382 20.0493 29.4321 20.5431 29.4321 21.2345C29.4321 21.8271 28.9382 22.4197 28.2469 22.4197H11.6543Z" fill="black"/>
</svg>
