<svg width="40" height="40" viewBox="0 0 40 40" fill="none" xmlns="http://www.w3.org/2000/svg">
<path d="M10.7125 23.2478H13.1393V16.5964C12.8203 16.6694 12.5127 16.7651 12.2164 16.8835C11.9248 17.002 11.6582 17.1456 11.4166 17.3142L10.3502 15.7898C10.7421 15.5437 11.1409 15.3363 11.5465 15.1677C11.9567 14.9945 12.3691 14.8578 12.7838 14.7576C13.2031 14.6528 13.6224 14.5776 14.0416 14.532C14.4655 14.4864 14.887 14.4636 15.3063 14.4636L15.2994 14.4773H15.3063V23.2478H17.6237V25.1482H10.7125V23.2478Z" fill="black"/>
<path d="M19.0797 20.9646L25.3278 14.4636H27.4948V20.9646H29.7985V22.865H27.4948V25.1482H25.3278V22.865H19.066L19.0797 20.9646ZM25.3278 20.9646V17.2048L21.6774 20.9646H25.3278Z" fill="black"/>
<path fill-rule="evenodd" clip-rule="evenodd" d="M13.9615 8.06318C3.91625 11.7161 2.22943 29.4738 17.4248 34.2223L16.8282 36.1312C-0.0375776 30.8608 1.28143 10.5461 13.278 6.18359L13.9615 8.06318ZM22.8217 34.2281C37.0333 29.4909 36.9171 13.5726 27.1504 7.9916L28.1426 6.25512C39.4159 12.697 39.2998 30.8436 23.4541 36.1254L22.8217 34.2281Z" fill="black"/>
<circle cx="20.0918" cy="35.1484" r="1" fill="black"/>
<path fill-rule="evenodd" clip-rule="evenodd" d="M38 20C38 29.9411 29.9411 38 20 38C10.0589 38 2 29.9411 2 20C2 10.0589 10.0589 2 20 2C29.9411 2 38 10.0589 38 20ZM40 20C40 31.0457 31.0457 40 20 40C8.9543 40 0 31.0457 0 20C0 8.9543 8.9543 0 20 0C31.0457 0 40 8.9543 40 20Z" fill="black"/>
</svg>
